<?xml version="1.0" encoding="UTF-8" standalone="no"?>
<!DOCTYPE svg PUBLIC "-//W3C//DTD SVG 1.1//EN"
 "http://www.w3.org/Graphics/SVG/1.1/DTD/svg11.dtd">
<!-- Generated by graphviz version 7.0.4 (20221203.1631)
 -->
<!-- Title: dependency&#45;cruiser output Pages: 1 -->
<svg width="896pt" height="306pt"
 viewBox="0.00 0.00 896.00 306.00" xmlns="http://www.w3.org/2000/svg" xmlns:xlink="http://www.w3.org/1999/xlink">
<g id="graph0" class="graph" transform="scale(1 1) rotate(0) translate(4 302)">
<title>dependency&#45;cruiser output</title>
<polygon fill="white" stroke="none" points="-4,4 -4,-302 892,-302 892,4 -4,4"/>
<g id="clust1" class="cluster">
<title>cluster_src</title>
<path fill="#ffffff" stroke="black" stroke-width="2" d="M20,-8C20,-8 868,-8 868,-8 874,-8 880,-14 880,-20 880,-20 880,-278 880,-278 880,-284 874,-290 868,-290 868,-290 20,-290 20,-290 14,-290 8,-284 8,-278 8,-278 8,-20 8,-20 8,-14 14,-8 20,-8"/>
<text text-anchor="middle" x="444" y="-278.8" font-family="Helvetica,sans-Serif" font-weight="bold" font-size="9.00">src</text>
</g>
<g id="clust2" class="cluster">
<title>cluster_src/modules</title>
<path fill="#ffffff" stroke="black" stroke-width="2" d="M93,-16C93,-16 860,-16 860,-16 866,-16 872,-22 872,-28 872,-28 872,-212 872,-212 872,-218 866,-224 860,-224 860,-224 93,-224 93,-224 87,-224 81,-218 81,-212 81,-212 81,-28 81,-28 81,-22 87,-16 93,-16"/>
<text text-anchor="middle" x="476.5" y="-212.8" font-family="Helvetica,sans-Serif" font-weight="bold" font-size="9.00">modules</text>
</g>
<!-- src/action.js -->
<g id="node1" class="node">
<title>src/action.js</title>
<g id="a_node1"><a xlink:href="src/action.js" xlink:title="action.js">
<path fill="#ffffcc" stroke="black" d="M65.5,-197C65.5,-197 23.5,-197 23.5,-197 20.5,-197 17.5,-194 17.5,-191 17.5,-191 17.5,-185 17.5,-185 17.5,-182 20.5,-179 23.5,-179 23.5,-179 65.5,-179 65.5,-179 68.5,-179 71.5,-182 71.5,-185 71.5,-185 71.5,-191 71.5,-191 71.5,-194 68.5,-197 65.5,-197"/>
<text text-anchor="start" x="27" y="-185.8" font-family="Helvetica,sans-Serif" font-size="9.00">action.js</text>
</a>
</g>
</g>
<!-- src/modules/common.js -->
<g id="node2" class="node">
<title>src/modules/common.js</title>
<g id="a_node2"><a xlink:href="src/modules/common.js" xlink:title="common.js">
<path fill="#ffffcc" stroke="black" d="M268,-137C268,-137 217,-137 217,-137 214,-137 211,-134 211,-131 211,-131 211,-125 211,-125 211,-122 214,-119 217,-119 217,-119 268,-119 268,-119 271,-119 274,-122 274,-125 274,-125 274,-131 274,-131 274,-134 271,-137 268,-137"/>
<text text-anchor="start" x="219" y="-125.8" font-family="Helvetica,sans-Serif" font-size="9.00">common.js</text>
</a>
</g>
</g>
<!-- src/action.js&#45;&gt;src/modules/common.js -->
<g id="edge1" class="edge">
<title>src/action.js&#45;&gt;src/modules/common.js</title>
<path fill="none" stroke="#000000" stroke-width="2" stroke-opacity="0.200000" d="M47.15,-197.1C50.48,-212.43 59.59,-243.02 81,-256 125.47,-282.95 155.73,-286.28 198,-256 233.33,-230.69 240.31,-175.03 241.47,-146.16"/>
<polygon fill="#000000" fill-opacity="0.200000" stroke="#000000" stroke-width="2" stroke-opacity="0.200000" points="243.57,-146.24 241.6,-140.19 239.37,-146.14 243.57,-146.24"/>
</g>
<!-- src/modules/modifier_keys.js -->
<g id="node3" class="node">
<title>src/modules/modifier_keys.js</title>
<g id="a_node3"><a xlink:href="src/modules/modifier_keys.js" xlink:title="modifier_keys.js">
<path fill="#ffffcc" stroke="black" d="M179.5,-197C179.5,-197 107.5,-197 107.5,-197 104.5,-197 101.5,-194 101.5,-191 101.5,-191 101.5,-185 101.5,-185 101.5,-182 104.5,-179 107.5,-179 107.5,-179 179.5,-179 179.5,-179 182.5,-179 185.5,-182 185.5,-185 185.5,-185 185.5,-191 185.5,-191 185.5,-194 182.5,-197 179.5,-197"/>
<text text-anchor="start" x="109.5" y="-185.8" font-family="Helvetica,sans-Serif" font-size="9.00">modifier_keys.js</text>
</a>
</g>
</g>
<!-- src/action.js&#45;&gt;src/modules/modifier_keys.js -->
<g id="edge2" class="edge">
<title>src/action.js&#45;&gt;src/modules/modifier_keys.js</title>
<path fill="none" stroke="#000000" stroke-width="2" stroke-opacity="0.200000" d="M71.75,-188C78.14,-188 85.19,-188 92.29,-188"/>
<polygon fill="#000000" fill-opacity="0.200000" stroke="#000000" stroke-width="2" stroke-opacity="0.200000" points="92.23,-190.1 98.23,-188 92.23,-185.9 92.23,-190.1"/>
</g>
<!-- src/modules/port_to_background.js -->
<g id="node4" class="node">
<title>src/modules/port_to_background.js</title>
<g id="a_node4"><a xlink:href="src/modules/port_to_background.js" xlink:title="port_to_background.js">
<path fill="#ffffcc" stroke="black" d="M192,-167C192,-167 95,-167 95,-167 92,-167 89,-164 89,-161 89,-161 89,-155 89,-155 89,-152 92,-149 95,-149 95,-149 192,-149 192,-149 195,-149 198,-152 198,-155 198,-155 198,-161 198,-161 198,-164 195,-167 192,-167"/>
<text text-anchor="start" x="97" y="-155.8" font-family="Helvetica,sans-Serif" font-size="9.00">port_to_background.js</text>
</a>
</g>
</g>
<!-- src/action.js&#45;&gt;src/modules/port_to_background.js -->
<g id="edge3" class="edge">
<title>src/action.js&#45;&gt;src/modules/port_to_background.js</title>
<path fill="none" stroke="#000000" stroke-width="2" stroke-opacity="0.200000" d="M66.31,-178.55C71.08,-176.57 76.17,-174.6 81,-173 84.31,-171.91 87.74,-170.85 91.22,-169.85"/>
<polygon fill="#000000" fill-opacity="0.200000" stroke="#000000" stroke-width="2" stroke-opacity="0.200000" points="91.76,-171.87 96.98,-168.25 90.64,-167.83 91.76,-171.87"/>
</g>
<!-- src/modules/__config.js -->
<g id="node9" class="node">
<title>src/modules/__config.js</title>
<g id="a_node9"><a xlink:href="src/modules/__config.js" xlink:title="__config.js">
<path fill="#ffffcc" stroke="black" d="M858,-132C858,-132 808,-132 808,-132 805,-132 802,-129 802,-126 802,-126 802,-120 802,-120 802,-117 805,-114 808,-114 808,-114 858,-114 858,-114 861,-114 864,-117 864,-120 864,-120 864,-126 864,-126 864,-129 861,-132 858,-132"/>
<text text-anchor="start" x="810" y="-120.8" font-family="Helvetica,sans-Serif" font-size="9.00">__config.js</text>
</a>
</g>
</g>
<!-- src/modules/common.js&#45;&gt;src/modules/__config.js -->
<g id="edge22" class="edge">
<title>src/modules/common.js&#45;&gt;src/modules/__config.js</title>
<path fill="none" stroke="#000000" stroke-width="2" stroke-opacity="0.200000" d="M244.44,-118.67C247.04,-98.44 256.29,-50.71 287,-30 342.12,7.17 370.02,-25 436.5,-25 436.5,-25 436.5,-25 630,-25 702.08,-25 729.34,-16.54 789,-57 806.41,-68.81 818.42,-90.25 825.24,-105.49"/>
<polygon fill="#000000" fill-opacity="0.200000" stroke="#000000" stroke-width="2" stroke-opacity="0.200000" points="823.22,-106.12 827.48,-110.84 827.09,-104.49 823.22,-106.12"/>
</g>
<!-- src/modules/__globals.js -->
<g id="node10" class="node">
<title>src/modules/__globals.js</title>
<g id="a_node10"><a xlink:href="src/modules/__globals.js" xlink:title="__globals.js">
<path fill="#ffffcc" stroke="black" d="M576,-154C576,-154 520,-154 520,-154 517,-154 514,-151 514,-148 514,-148 514,-142 514,-142 514,-139 517,-136 520,-136 520,-136 576,-136 576,-136 579,-136 582,-139 582,-142 582,-142 582,-148 582,-148 582,-151 579,-154 576,-154"/>
<text text-anchor="start" x="522" y="-142.8" font-family="Helvetica,sans-Serif" font-size="9.00">__globals.js</text>
</a>
</g>
</g>
<!-- src/modules/common.js&#45;&gt;src/modules/__globals.js -->
<g id="edge25" class="edge">
<title>src/modules/common.js&#45;&gt;src/modules/__globals.js</title>
<path fill="none" stroke="#000000" stroke-width="2" stroke-opacity="0.200000" d="M262.36,-137.35C287.22,-149.11 332.65,-168.64 374,-176 429.57,-185.9 447.02,-192.49 501,-176 511.58,-172.77 521.92,-166.2 530.11,-159.93"/>
<polygon fill="#000000" fill-opacity="0.200000" stroke="#000000" stroke-width="2" stroke-opacity="0.200000" points="531.29,-161.69 534.63,-156.28 528.64,-158.42 531.29,-161.69"/>
</g>
<!-- src/modules/__constants.js -->
<g id="node11" class="node">
<title>src/modules/__constants.js</title>
<g id="a_node11"><a xlink:href="src/modules/__constants.js" xlink:title="__constants.js">
<path fill="#ffffcc" stroke="black" d="M470,-112C470,-112 405,-112 405,-112 402,-112 399,-109 399,-106 399,-106 399,-100 399,-100 399,-97 402,-94 405,-94 405,-94 470,-94 470,-94 473,-94 476,-97 476,-100 476,-100 476,-106 476,-106 476,-109 473,-112 470,-112"/>
<text text-anchor="start" x="407" y="-100.8" font-family="Helvetica,sans-Serif" font-size="9.00">__constants.js</text>
</a>
</g>
</g>
<!-- src/modules/common.js&#45;&gt;src/modules/__constants.js -->
<g id="edge23" class="edge">
<title>src/modules/common.js&#45;&gt;src/modules/__constants.js</title>
<path fill="none" stroke="#000000" stroke-width="2" stroke-opacity="0.200000" d="M267.12,-118.59C273.48,-116.4 280.42,-114.33 287,-113 320.97,-106.13 360.07,-103.71 389.76,-102.96"/>
<polygon fill="#000000" fill-opacity="0.200000" stroke="#000000" stroke-width="2" stroke-opacity="0.200000" points="389.67,-105.06 395.63,-102.84 389.59,-100.86 389.67,-105.06"/>
</g>
<!-- src/modules/__functions.js -->
<g id="node12" class="node">
<title>src/modules/__functions.js</title>
<g id="a_node12"><a xlink:href="src/modules/__functions.js" xlink:title="__functions.js">
<path fill="#ffffcc" stroke="black" d="M355,-90C355,-90 293,-90 293,-90 290,-90 287,-87 287,-84 287,-84 287,-78 287,-78 287,-75 290,-72 293,-72 293,-72 355,-72 355,-72 358,-72 361,-75 361,-78 361,-78 361,-84 361,-84 361,-87 358,-90 355,-90"/>
<text text-anchor="start" x="295" y="-78.8" font-family="Helvetica,sans-Serif" font-size="9.00">__functions.js</text>
</a>
</g>
</g>
<!-- src/modules/common.js&#45;&gt;src/modules/__functions.js -->
<g id="edge24" class="edge">
<title>src/modules/common.js&#45;&gt;src/modules/__functions.js</title>
<path fill="none" stroke="#000000" stroke-width="2" stroke-opacity="0.200000" d="M257.41,-118.61C265.86,-113.02 276.92,-105.89 287,-100 290.07,-98.21 293.32,-96.38 296.57,-94.61"/>
<polygon fill="#000000" fill-opacity="0.200000" stroke="#000000" stroke-width="2" stroke-opacity="0.200000" points="297.55,-96.47 301.85,-91.79 295.57,-92.77 297.55,-96.47"/>
</g>
<!-- src/modules/__how_to_open_link.js -->
<g id="node13" class="node">
<title>src/modules/__how_to_open_link.js</title>
<g id="a_node13"><a xlink:href="src/modules/__how_to_open_link.js" xlink:title="__how_to_open_link.js">
<path fill="#ffffcc" stroke="black" d="M783,-81C783,-81 682,-81 682,-81 679,-81 676,-78 676,-75 676,-75 676,-69 676,-69 676,-66 679,-63 682,-63 682,-63 783,-63 783,-63 786,-63 789,-66 789,-69 789,-69 789,-75 789,-75 789,-78 786,-81 783,-81"/>
<text text-anchor="start" x="684" y="-69.8" font-family="Helvetica,sans-Serif" font-size="9.00">__how_to_open_link.js</text>
</a>
</g>
</g>
<!-- src/modules/common.js&#45;&gt;src/modules/__how_to_open_link.js -->
<g id="edge26" class="edge">
<title>src/modules/common.js&#45;&gt;src/modules/__how_to_open_link.js</title>
<path fill="none" stroke="#000000" stroke-width="2" stroke-opacity="0.200000" d="M245.49,-118.55C249.72,-101.14 261.39,-64.29 287,-48 343.17,-12.28 369.94,-39 436.5,-39 436.5,-39 436.5,-39 549,-39 599.76,-39 613.37,-35.32 663,-46 676.74,-48.96 691.38,-54.21 703.59,-59.22"/>
<polygon fill="#000000" fill-opacity="0.200000" stroke="#000000" stroke-width="2" stroke-opacity="0.200000" points="702.47,-61.03 708.82,-61.44 704.11,-57.16 702.47,-61.03"/>
</g>
<!-- src/modules/__logger.js -->
<g id="node14" class="node">
<title>src/modules/__logger.js</title>
<g id="a_node14"><a xlink:href="src/modules/__logger.js" xlink:title="__logger.js">
<path fill="#ffffcc" stroke="black" d="M654.5,-198C654.5,-198 603.5,-198 603.5,-198 600.5,-198 597.5,-195 597.5,-192 597.5,-192 597.5,-186 597.5,-186 597.5,-183 600.5,-180 603.5,-180 603.5,-180 654.5,-180 654.5,-180 657.5,-180 660.5,-183 660.5,-186 660.5,-186 660.5,-192 660.5,-192 660.5,-195 657.5,-198 654.5,-198"/>
<text text-anchor="start" x="605.5" y="-186.8" font-family="Helvetica,sans-Serif" font-size="9.00">__logger.js</text>
</a>
</g>
</g>
<!-- src/modules/common.js&#45;&gt;src/modules/__logger.js -->
<g id="edge28" class="edge">
<title>src/modules/common.js&#45;&gt;src/modules/__logger.js</title>
<path fill="none" stroke="#000000" stroke-width="2" stroke-opacity="0.200000" d="M251.9,-137.35C260.05,-145.84 273.18,-158.06 287,-165 322.46,-182.81 334.61,-180.22 374,-185 449.42,-194.16 538.36,-192.8 588.47,-190.94"/>
<polygon fill="#000000" fill-opacity="0.200000" stroke="#000000" stroke-width="2" stroke-opacity="0.200000" points="588.43,-193.04 594.34,-190.7 588.26,-188.84 588.43,-193.04"/>
</g>
<!-- src/modules/__options.js -->
<g id="node15" class="node">
<title>src/modules/__options.js</title>
<g id="a_node15"><a xlink:href="src/modules/__options.js" xlink:title="__options.js">
<path fill="#ffffcc" stroke="black" d="M657,-70C657,-70 601,-70 601,-70 598,-70 595,-67 595,-64 595,-64 595,-58 595,-58 595,-55 598,-52 601,-52 601,-52 657,-52 657,-52 660,-52 663,-55 663,-58 663,-58 663,-64 663,-64 663,-67 660,-70 657,-70"/>
<text text-anchor="start" x="603" y="-58.8" font-family="Helvetica,sans-Serif" font-size="9.00">__options.js</text>
</a>
</g>
</g>
<!-- src/modules/common.js&#45;&gt;src/modules/__options.js -->
<g id="edge29" class="edge">
<title>src/modules/common.js&#45;&gt;src/modules/__options.js</title>
<path fill="none" stroke="#000000" stroke-width="2" stroke-opacity="0.200000" d="M246.81,-118.73C252.5,-104.4 265.62,-77.32 287,-66 337.58,-39.23 506.19,-50.04 585.76,-56.94"/>
<polygon fill="#000000" fill-opacity="0.200000" stroke="#000000" stroke-width="2" stroke-opacity="0.200000" points="585.37,-59.01 591.53,-57.45 585.74,-54.83 585.37,-59.01"/>
</g>
<!-- src/modules/__initializer.js -->
<g id="node16" class="node">
<title>src/modules/__initializer.js</title>
<g id="a_node16"><a xlink:href="src/modules/__initializer.js" xlink:title="__initializer.js">
<path fill="#ffffcc" stroke="black" d="M354.5,-137C354.5,-137 293.5,-137 293.5,-137 290.5,-137 287.5,-134 287.5,-131 287.5,-131 287.5,-125 287.5,-125 287.5,-122 290.5,-119 293.5,-119 293.5,-119 354.5,-119 354.5,-119 357.5,-119 360.5,-122 360.5,-125 360.5,-125 360.5,-131 360.5,-131 360.5,-134 357.5,-137 354.5,-137"/>
<text text-anchor="start" x="295.5" y="-125.8" font-family="Helvetica,sans-Serif" font-size="9.00">__initializer.js</text>
</a>
</g>
</g>
<!-- src/modules/common.js&#45;&gt;src/modules/__initializer.js -->
<g id="edge27" class="edge">
<title>src/modules/common.js&#45;&gt;src/modules/__initializer.js</title>
<path fill="none" stroke="#000000" stroke-width="2" stroke-opacity="0.200000" d="M274.46,-128C275.77,-128 277.09,-128 278.42,-128"/>
<polygon fill="#000000" fill-opacity="0.200000" stroke="#000000" stroke-width="2" stroke-opacity="0.200000" points="278.21,-130.1 284.21,-128 278.21,-125.9 278.21,-130.1"/>
</g>
<!-- src/modules/modifier_keys.js&#45;&gt;src/modules/common.js -->
<g id="edge30" class="edge">
<title>src/modules/modifier_keys.js&#45;&gt;src/modules/common.js</title>
<path fill="none" stroke="#000000" stroke-width="2" stroke-opacity="0.200000" d="M185.75,-178.87C190.02,-177.21 194.19,-175.27 198,-173 210.34,-165.64 221.55,-153.87 229.49,-144.21"/>
<polygon fill="#000000" fill-opacity="0.200000" stroke="#000000" stroke-width="2" stroke-opacity="0.200000" points="230.96,-145.74 233.02,-139.73 227.66,-143.14 230.96,-145.74"/>
</g>
<!-- src/modules/port_to_background.js&#45;&gt;src/modules/common.js -->
<g id="edge32" class="edge">
<title>src/modules/port_to_background.js&#45;&gt;src/modules/common.js</title>
<path fill="none" stroke="#000000" stroke-width="2" stroke-opacity="0.200000" d="M179.41,-148.53C185.62,-146.76 192.01,-144.87 198,-143 200.75,-142.14 203.58,-141.23 206.42,-140.29"/>
<polygon fill="#000000" fill-opacity="0.200000" stroke="#000000" stroke-width="2" stroke-opacity="0.200000" points="207.01,-142.31 212.03,-138.41 205.67,-138.33 207.01,-142.31"/>
</g>
<!-- src/background.js -->
<g id="node5" class="node">
<title>src/background.js</title>
<g id="a_node5"><a xlink:href="src/background.js" xlink:title="background.js">
<path fill="#ffffcc" stroke="black" d="M175,-250C175,-250 112,-250 112,-250 109,-250 106,-247 106,-244 106,-244 106,-238 106,-238 106,-235 109,-232 112,-232 112,-232 175,-232 175,-232 178,-232 181,-235 181,-238 181,-238 181,-244 181,-244 181,-247 178,-250 175,-250"/>
<text text-anchor="start" x="114" y="-238.8" font-family="Helvetica,sans-Serif" font-size="9.00">background.js</text>
</a>
</g>
</g>
<!-- src/background.js&#45;&gt;src/modules/common.js -->
<g id="edge4" class="edge">
<title>src/background.js&#45;&gt;src/modules/common.js</title>
<path fill="none" stroke="#000000" stroke-width="2" stroke-opacity="0.200000" d="M181.48,-236.01C187.47,-233.95 193.25,-231.05 198,-227 222.63,-205.98 233.82,-168.35 238.5,-146.03"/>
<polygon fill="#000000" fill-opacity="0.200000" stroke="#000000" stroke-width="2" stroke-opacity="0.200000" points="240.55,-146.49 239.6,-140.2 236.42,-145.7 240.55,-146.49"/>
</g>
<!-- src/content.js -->
<g id="node6" class="node">
<title>src/content.js</title>
<g id="a_node6"><a xlink:href="src/content.js" xlink:title="content.js">
<path fill="#ffffcc" stroke="black" d="M66.5,-137C66.5,-137 22.5,-137 22.5,-137 19.5,-137 16.5,-134 16.5,-131 16.5,-131 16.5,-125 16.5,-125 16.5,-122 19.5,-119 22.5,-119 22.5,-119 66.5,-119 66.5,-119 69.5,-119 72.5,-122 72.5,-125 72.5,-125 72.5,-131 72.5,-131 72.5,-134 69.5,-137 66.5,-137"/>
<text text-anchor="start" x="24.5" y="-125.8" font-family="Helvetica,sans-Serif" font-size="9.00">content.js</text>
</a>
</g>
</g>
<!-- src/content.js&#45;&gt;src/modules/common.js -->
<g id="edge5" class="edge">
<title>src/content.js&#45;&gt;src/modules/common.js</title>
<path fill="none" stroke="#000000" stroke-width="2" stroke-opacity="0.200000" d="M53.72,-118.69C59.33,-112.19 66.84,-103.25 73,-95 76.83,-89.86 75.35,-86.02 81,-83 126.85,-58.46 150.13,-62.69 198,-83 211.55,-88.75 222.94,-101.01 230.66,-111.29"/>
<polygon fill="#000000" fill-opacity="0.200000" stroke="#000000" stroke-width="2" stroke-opacity="0.200000" points="228.91,-112.45 234.08,-116.14 232.34,-110.03 228.91,-112.45"/>
</g>
<!-- src/content.js&#45;&gt;src/modules/port_to_background.js -->
<g id="edge7" class="edge">
<title>src/content.js&#45;&gt;src/modules/port_to_background.js</title>
<path fill="none" stroke="#000000" stroke-width="2" stroke-opacity="0.200000" d="M66.31,-137.45C71.08,-139.43 76.17,-141.4 81,-143 84.31,-144.09 87.74,-145.15 91.22,-146.15"/>
<polygon fill="#000000" fill-opacity="0.200000" stroke="#000000" stroke-width="2" stroke-opacity="0.200000" points="90.64,-148.17 96.98,-147.75 91.76,-144.13 90.64,-148.17"/>
</g>
<!-- src/modules/popup_icon.js -->
<g id="node7" class="node">
<title>src/modules/popup_icon.js</title>
<g id="a_node7"><a xlink:href="src/modules/popup_icon.js" xlink:title="popup_icon.js">
<path fill="#ffffcc" stroke="black" d="M175,-137C175,-137 112,-137 112,-137 109,-137 106,-134 106,-131 106,-131 106,-125 106,-125 106,-122 109,-119 112,-119 112,-119 175,-119 175,-119 178,-119 181,-122 181,-125 181,-125 181,-131 181,-131 181,-134 178,-137 175,-137"/>
<text text-anchor="start" x="114" y="-125.8" font-family="Helvetica,sans-Serif" font-size="9.00">popup_icon.js</text>
</a>
</g>
</g>
<!-- src/content.js&#45;&gt;src/modules/popup_icon.js -->
<g id="edge6" class="edge">
<title>src/content.js&#45;&gt;src/modules/popup_icon.js</title>
<path fill="none" stroke="#000000" stroke-width="2" stroke-opacity="0.200000" d="M72.78,-128C80.27,-128 88.6,-128 96.82,-128"/>
<polygon fill="#000000" fill-opacity="0.200000" stroke="#000000" stroke-width="2" stroke-opacity="0.200000" points="96.63,-130.1 102.63,-128 96.63,-125.9 96.63,-130.1"/>
</g>
<!-- src/modules/popup_icon.js&#45;&gt;src/modules/common.js -->
<g id="edge31" class="edge">
<title>src/modules/popup_icon.js&#45;&gt;src/modules/common.js</title>
<path fill="none" stroke="#000000" stroke-width="2" stroke-opacity="0.200000" d="M181.45,-128C188.07,-128 195,-128 201.71,-128"/>
<polygon fill="#000000" fill-opacity="0.200000" stroke="#000000" stroke-width="2" stroke-opacity="0.200000" points="201.63,-130.1 207.63,-128 201.63,-125.9 201.63,-130.1"/>
</g>
<!-- src/modules/__communication_proxy.js -->
<g id="node8" class="node">
<title>src/modules/__communication_proxy.js</title>
<g id="a_node8"><a xlink:href="src/modules/__communication_proxy.js" xlink:title="__communication_proxy.js">
<path fill="#ffffcc" stroke="black" d="M495,-170C495,-170 380,-170 380,-170 377,-170 374,-167 374,-164 374,-164 374,-158 374,-158 374,-155 377,-152 380,-152 380,-152 495,-152 495,-152 498,-152 501,-155 501,-158 501,-158 501,-164 501,-164 501,-167 498,-170 495,-170"/>
<text text-anchor="start" x="382" y="-158.8" font-family="Helvetica,sans-Serif" font-size="9.00">__communication_proxy.js</text>
</a>
</g>
</g>
<!-- src/modules/__communication_proxy.js&#45;&gt;src/modules/__config.js -->
<g id="edge8" class="edge">
<title>src/modules/__communication_proxy.js&#45;&gt;src/modules/__config.js</title>
<path fill="none" stroke="#000000" stroke-width="2" stroke-opacity="0.200000" d="M501.45,-162.46C526.54,-162.55 555.67,-162.03 582,-160 657.16,-154.21 744.04,-139.52 793.05,-130.49"/>
<polygon fill="#000000" fill-opacity="0.200000" stroke="#000000" stroke-width="2" stroke-opacity="0.200000" points="793.26,-132.59 798.78,-129.43 792.49,-128.46 793.26,-132.59"/>
</g>
<!-- src/modules/__communication_proxy.js&#45;&gt;src/modules/__globals.js -->
<g id="edge9" class="edge">
<title>src/modules/__communication_proxy.js&#45;&gt;src/modules/__globals.js</title>
<path fill="none" stroke="#000000" stroke-width="2" stroke-opacity="0.200000" d="M501.3,-151.74C502.49,-151.56 503.67,-151.39 504.84,-151.22"/>
<polygon fill="#000000" fill-opacity="0.200000" stroke="#000000" stroke-width="2" stroke-opacity="0.200000" points="505.01,-153.31 510.64,-150.36 504.4,-149.16 505.01,-153.31"/>
</g>
<!-- src/modules/__globals.js&#45;&gt;src/modules/__logger.js -->
<g id="edge13" class="edge">
<title>src/modules/__globals.js&#45;&gt;src/modules/__logger.js</title>
<path fill="none" stroke="#000000" stroke-width="2" stroke-opacity="0.200000" d="M565.75,-154.33C576.68,-160.42 591.12,-168.46 603.34,-175.27"/>
<polygon fill="#000000" fill-opacity="0.200000" stroke="#000000" stroke-width="2" stroke-opacity="0.200000" points="602.09,-176.97 608.35,-178.06 604.13,-173.3 602.09,-176.97"/>
</g>
<!-- src/modules/__globals.js&#45;&gt;src/modules/__options.js -->
<g id="edge14" class="edge">
<title>src/modules/__globals.js&#45;&gt;src/modules/__options.js</title>
<path fill="none" stroke="#000000" stroke-width="2" stroke-opacity="0.200000" d="M557.76,-135.69C571.16,-121.44 596.93,-94.03 613.25,-76.68"/>
<polygon fill="#000000" fill-opacity="0.200000" stroke="#000000" stroke-width="2" stroke-opacity="0.200000" points="614.55,-78.37 617.13,-72.56 611.49,-75.49 614.55,-78.37"/>
</g>
<!-- src/modules/__functions.js&#45;&gt;src/modules/__globals.js -->
<g id="edge11" class="edge">
<title>src/modules/__functions.js&#45;&gt;src/modules/__globals.js</title>
<path fill="none" stroke="#000000" stroke-width="2" stroke-opacity="0.200000" d="M361.44,-78.97C405.72,-77.09 477.43,-76.15 501,-88 517.94,-96.51 530.75,-114.44 538.49,-127.93"/>
<polygon fill="#000000" fill-opacity="0.200000" stroke="#000000" stroke-width="2" stroke-opacity="0.200000" points="536.51,-128.69 541.21,-132.97 540.21,-126.69 536.51,-128.69"/>
</g>
<!-- src/modules/__functions.js&#45;&gt;src/modules/__constants.js -->
<g id="edge10" class="edge">
<title>src/modules/__functions.js&#45;&gt;src/modules/__constants.js</title>
<path fill="none" stroke="#000000" stroke-width="2" stroke-opacity="0.200000" d="M361.2,-88.14C370.35,-89.95 380.31,-91.91 389.9,-93.8"/>
<polygon fill="#000000" fill-opacity="0.200000" stroke="#000000" stroke-width="2" stroke-opacity="0.200000" points="389.3,-95.83 395.59,-94.93 390.11,-91.71 389.3,-95.83"/>
</g>
<!-- src/modules/__functions.js&#45;&gt;src/modules/__how_to_open_link.js -->
<g id="edge12" class="edge">
<title>src/modules/__functions.js&#45;&gt;src/modules/__how_to_open_link.js</title>
<path fill="none" stroke="#000000" stroke-width="2" stroke-opacity="0.200000" d="M361.33,-75.23C365.59,-74.72 369.89,-74.29 374,-74 502.12,-64.89 534.61,-79.75 663,-76 664.3,-75.96 665.62,-75.92 666.94,-75.87"/>
<polygon fill="#000000" fill-opacity="0.200000" stroke="#000000" stroke-width="2" stroke-opacity="0.200000" points="666.87,-77.98 672.78,-75.64 666.71,-73.78 666.87,-77.98"/>
</g>
<!-- src/modules/__how_to_open_link.js&#45;&gt;src/modules/__config.js -->
<g id="edge15" class="edge">
<title>src/modules/__how_to_open_link.js&#45;&gt;src/modules/__config.js</title>
<path fill="none" stroke="#000000" stroke-width="2" stroke-opacity="0.200000" d="M751.57,-81.35C766.74,-89.21 788.63,-100.55 805.75,-109.41"/>
<polygon fill="#000000" fill-opacity="0.200000" stroke="#000000" stroke-width="2" stroke-opacity="0.200000" points="804.73,-111.25 811.03,-112.14 806.66,-107.52 804.73,-111.25"/>
</g>
<!-- src/modules/__logger.js&#45;&gt;src/modules/__config.js -->
<g id="edge20" class="edge">
<title>src/modules/__logger.js&#45;&gt;src/modules/__config.js</title>
<path fill="none" stroke="#000000" stroke-width="2" stroke-opacity="0.200000" d="M660.85,-191.78C694.32,-193.42 748.39,-191.96 789,-171 802.76,-163.9 814.21,-150.44 821.83,-139.58"/>
<polygon fill="#000000" fill-opacity="0.200000" stroke="#000000" stroke-width="2" stroke-opacity="0.200000" points="823.44,-140.95 825,-134.79 819.94,-138.63 823.44,-140.95"/>
</g>
<!-- src/modules/__options.js&#45;&gt;src/modules/__how_to_open_link.js -->
<g id="edge21" class="edge">
<title>src/modules/__options.js&#45;&gt;src/modules/__how_to_open_link.js</title>
<path fill="none" stroke="#000000" stroke-width="2" stroke-opacity="0.200000" d="M663.23,-64.6C664.5,-64.74 665.78,-64.88 667.07,-65.02"/>
<polygon fill="#000000" fill-opacity="0.200000" stroke="#000000" stroke-width="2" stroke-opacity="0.200000" points="666.56,-67.07 672.75,-65.63 667.01,-62.9 666.56,-67.07"/>
</g>
<!-- src/modules/__initializer.js&#45;&gt;src/modules/__communication_proxy.js -->
<g id="edge16" class="edge">
<title>src/modules/__initializer.js&#45;&gt;src/modules/__communication_proxy.js</title>
<path fill="none" stroke="#000000" stroke-width="2" stroke-opacity="0.200000" d="M355.56,-137.44C361.66,-139.3 368.03,-141.23 374,-143 380.7,-144.99 387.81,-147.07 394.74,-149.08"/>
<polygon fill="#000000" fill-opacity="0.200000" stroke="#000000" stroke-width="2" stroke-opacity="0.200000" points="394.13,-151.09 400.48,-150.73 395.3,-147.05 394.13,-151.09"/>
</g>
<!-- src/modules/__initializer.js&#45;&gt;src/modules/__config.js -->
<g id="edge17" class="edge">
<title>src/modules/__initializer.js&#45;&gt;src/modules/__config.js</title>
<path fill="none" stroke="#000000" stroke-width="2" stroke-opacity="0.200000" d="M360.65,-127.65C452.58,-126.74 697.13,-124.33 792.83,-123.39"/>
<polygon fill="#000000" fill-opacity="0.200000" stroke="#000000" stroke-width="2" stroke-opacity="0.200000" points="792.61,-125.49 798.59,-123.33 792.57,-121.29 792.61,-125.49"/>
</g>
<!-- src/modules/__initializer.js&#45;&gt;src/modules/__globals.js -->
<g id="edge19" class="edge">
<title>src/modules/__initializer.js&#45;&gt;src/modules/__globals.js</title>
<path fill="none" stroke="#000000" stroke-width="2" stroke-opacity="0.200000" d="M360.67,-130.73C399.95,-133.74 463.06,-138.57 504.78,-141.77"/>
<polygon fill="#000000" fill-opacity="0.200000" stroke="#000000" stroke-width="2" stroke-opacity="0.200000" points="504.44,-143.85 510.58,-142.21 504.76,-139.66 504.44,-143.85"/>
</g>
<!-- src/modules/__initializer.js&#45;&gt;src/modules/__constants.js -->
<g id="edge18" class="edge">
<title>src/modules/__initializer.js&#45;&gt;src/modules/__constants.js</title>
<path fill="none" stroke="#000000" stroke-width="2" stroke-opacity="0.200000" d="M360.89,-119.95C370.15,-117.88 380.26,-115.61 389.97,-113.43"/>
<polygon fill="#000000" fill-opacity="0.200000" stroke="#000000" stroke-width="2" stroke-opacity="0.200000" points="390.4,-115.49 395.8,-112.13 389.49,-111.39 390.4,-115.49"/>
</g>
<!-- src/modules/input_components.js -->
<g id="node17" class="node">
<title>src/modules/input_components.js</title>
<g id="a_node17"><a xlink:href="src/modules/input_components.js" xlink:title="input_components.js">
<path fill="#ffffcc" stroke="black" d="M189.5,-107C189.5,-107 97.5,-107 97.5,-107 94.5,-107 91.5,-104 91.5,-101 91.5,-101 91.5,-95 91.5,-95 91.5,-92 94.5,-89 97.5,-89 97.5,-89 189.5,-89 189.5,-89 192.5,-89 195.5,-92 195.5,-95 195.5,-95 195.5,-101 195.5,-101 195.5,-104 192.5,-107 189.5,-107"/>
<text text-anchor="start" x="99.5" y="-95.8" font-family="Helvetica,sans-Serif" font-size="9.00">input_components.js</text>
</a>
</g>
</g>
<!-- src/options.js -->
<g id="node18" class="node">
<title>src/options.js</title>
<g id="a_node18"><a xlink:href="src/options.js" xlink:title="options.js">
<path fill="#ffffcc" stroke="black" d="M67,-89C67,-89 22,-89 22,-89 19,-89 16,-86 16,-83 16,-83 16,-77 16,-77 16,-74 19,-71 22,-71 22,-71 67,-71 67,-71 70,-71 73,-74 73,-77 73,-77 73,-83 73,-83 73,-86 70,-89 67,-89"/>
<text text-anchor="start" x="24" y="-77.8" font-family="Helvetica,sans-Serif" font-size="9.00">options.js</text>
</a>
</g>
</g>
<!-- src/options.js&#45;&gt;src/modules/common.js -->
<g id="edge33" class="edge">
<title>src/options.js&#45;&gt;src/modules/common.js</title>
<path fill="none" stroke="#000000" stroke-width="2" stroke-opacity="0.200000" d="M69.22,-70.52C100.58,-59.6 156.66,-45.71 198,-67 215.62,-76.08 227.68,-95.96 234.55,-110.57"/>
<polygon fill="#000000" fill-opacity="0.200000" stroke="#000000" stroke-width="2" stroke-opacity="0.200000" points="232.62,-111.41 236.95,-116.07 236.47,-109.73 232.62,-111.41"/>
</g>
<!-- src/options.js&#45;&gt;src/modules/input_components.js -->
<g id="edge34" class="edge">
<title>src/options.js&#45;&gt;src/modules/input_components.js</title>
<path fill="none" stroke="#000000" stroke-width="2" stroke-opacity="0.200000" d="M73.3,-85.16C76.33,-85.72 79.5,-86.31 82.73,-86.91"/>
<polygon fill="#000000" fill-opacity="0.200000" stroke="#000000" stroke-width="2" stroke-opacity="0.200000" points="82.17,-88.94 88.45,-87.97 82.93,-84.81 82.17,-88.94"/>
</g>
</g>
</svg>
