<?xml version="1.0" encoding="UTF-8" standalone="no"?>
<!DOCTYPE svg PUBLIC "-//W3C//DTD SVG 1.1//EN"
 "http://www.w3.org/Graphics/SVG/1.1/DTD/svg11.dtd">
<!-- Generated by graphviz version 7.0.4 (20221203.1631)
 -->
<!-- Title: dependency&#45;cruiser output Pages: 1 -->
<svg width="779pt" height="280pt"
 viewBox="0.00 0.00 779.00 280.00" xmlns="http://www.w3.org/2000/svg" xmlns:xlink="http://www.w3.org/1999/xlink">
<g id="graph0" class="graph" transform="scale(1 1) rotate(0) translate(4 276)">
<title>dependency&#45;cruiser output</title>
<polygon fill="white" stroke="none" points="-4,4 -4,-276 775,-276 775,4 -4,4"/>
<g id="clust1" class="cluster">
<title>cluster_src</title>
<path fill="#ffffff" stroke="black" stroke-width="2" d="M20,-8C20,-8 751,-8 751,-8 757,-8 763,-14 763,-20 763,-20 763,-252 763,-252 763,-258 757,-264 751,-264 751,-264 20,-264 20,-264 14,-264 8,-258 8,-252 8,-252 8,-20 8,-20 8,-14 14,-8 20,-8"/>
<text text-anchor="middle" x="385.5" y="-252.8" font-family="Helvetica,sans-Serif" font-weight="bold" font-size="9.00">src</text>
</g>
<g id="clust2" class="cluster">
<title>cluster_src/modules</title>
<path fill="#ffffff" stroke="black" stroke-width="2" d="M93,-16C93,-16 743,-16 743,-16 749,-16 755,-22 755,-28 755,-28 755,-186 755,-186 755,-192 749,-198 743,-198 743,-198 93,-198 93,-198 87,-198 81,-192 81,-186 81,-186 81,-28 81,-28 81,-22 87,-16 93,-16"/>
<text text-anchor="middle" x="418" y="-186.8" font-family="Helvetica,sans-Serif" font-weight="bold" font-size="9.00">modules</text>
</g>
<!-- src/action.js -->
<g id="node1" class="node">
<title>src/action.js</title>
<g id="a_node1"><a xlink:href="src/action.js" xlink:title="action.js">
<path fill="#ffffcc" stroke="black" d="M65.5,-172C65.5,-172 23.5,-172 23.5,-172 20.5,-172 17.5,-169 17.5,-166 17.5,-166 17.5,-160 17.5,-160 17.5,-157 20.5,-154 23.5,-154 23.5,-154 65.5,-154 65.5,-154 68.5,-154 71.5,-157 71.5,-160 71.5,-160 71.5,-166 71.5,-166 71.5,-169 68.5,-172 65.5,-172"/>
<text text-anchor="start" x="27" y="-160.8" font-family="Helvetica,sans-Serif" font-size="9.00">action.js</text>
</a>
</g>
</g>
<!-- src/modules/common.js -->
<g id="node2" class="node">
<title>src/modules/common.js</title>
<g id="a_node2"><a xlink:href="src/modules/common.js" xlink:title="common.js">
<path fill="#ffffcc" stroke="black" d="M268,-133C268,-133 217,-133 217,-133 214,-133 211,-130 211,-127 211,-127 211,-121 211,-121 211,-118 214,-115 217,-115 217,-115 268,-115 268,-115 271,-115 274,-118 274,-121 274,-121 274,-127 274,-127 274,-130 271,-133 268,-133"/>
<text text-anchor="start" x="219" y="-121.8" font-family="Helvetica,sans-Serif" font-size="9.00">common.js</text>
</a>
</g>
</g>
<!-- src/action.js&#45;&gt;src/modules/common.js -->
<g id="edge1" class="edge">
<title>src/action.js&#45;&gt;src/modules/common.js</title>
<path fill="none" stroke="#000000" stroke-width="2" stroke-opacity="0.200000" d="M47.31,-172.46C50.79,-187.73 60.02,-217.37 81,-230 125.55,-256.81 154.81,-258.96 198,-230 227.32,-210.34 236.89,-167.01 240.01,-142.26"/>
<polygon fill="#000000" fill-opacity="0.200000" stroke="#000000" stroke-width="2" stroke-opacity="0.200000" points="242.07,-142.69 240.62,-136.5 237.9,-142.25 242.07,-142.69"/>
</g>
<!-- src/modules/modifier_keys.js -->
<g id="node3" class="node">
<title>src/modules/modifier_keys.js</title>
<g id="a_node3"><a xlink:href="src/modules/modifier_keys.js" xlink:title="modifier_keys.js">
<path fill="#ffffcc" stroke="black" d="M179.5,-172C179.5,-172 107.5,-172 107.5,-172 104.5,-172 101.5,-169 101.5,-166 101.5,-166 101.5,-160 101.5,-160 101.5,-157 104.5,-154 107.5,-154 107.5,-154 179.5,-154 179.5,-154 182.5,-154 185.5,-157 185.5,-160 185.5,-160 185.5,-166 185.5,-166 185.5,-169 182.5,-172 179.5,-172"/>
<text text-anchor="start" x="109.5" y="-160.8" font-family="Helvetica,sans-Serif" font-size="9.00">modifier_keys.js</text>
</a>
</g>
</g>
<!-- src/action.js&#45;&gt;src/modules/modifier_keys.js -->
<g id="edge2" class="edge">
<title>src/action.js&#45;&gt;src/modules/modifier_keys.js</title>
<path fill="none" stroke="#000000" stroke-width="2" stroke-opacity="0.200000" d="M71.75,-163C78.14,-163 85.19,-163 92.29,-163"/>
<polygon fill="#000000" fill-opacity="0.200000" stroke="#000000" stroke-width="2" stroke-opacity="0.200000" points="92.23,-165.1 98.23,-163 92.23,-160.9 92.23,-165.1"/>
</g>
<!-- src/modules/port_to_background.js -->
<g id="node4" class="node">
<title>src/modules/port_to_background.js</title>
<g id="a_node4"><a xlink:href="src/modules/port_to_background.js" xlink:title="port_to_background.js">
<path fill="#ffffcc" stroke="black" d="M192,-142C192,-142 95,-142 95,-142 92,-142 89,-139 89,-136 89,-136 89,-130 89,-130 89,-127 92,-124 95,-124 95,-124 192,-124 192,-124 195,-124 198,-127 198,-130 198,-130 198,-136 198,-136 198,-139 195,-142 192,-142"/>
<text text-anchor="start" x="97" y="-130.8" font-family="Helvetica,sans-Serif" font-size="9.00">port_to_background.js</text>
</a>
</g>
</g>
<!-- src/action.js&#45;&gt;src/modules/port_to_background.js -->
<g id="edge3" class="edge">
<title>src/action.js&#45;&gt;src/modules/port_to_background.js</title>
<path fill="none" stroke="#000000" stroke-width="2" stroke-opacity="0.200000" d="M66.31,-153.55C71.08,-151.57 76.17,-149.6 81,-148 84.31,-146.91 87.74,-145.85 91.22,-144.85"/>
<polygon fill="#000000" fill-opacity="0.200000" stroke="#000000" stroke-width="2" stroke-opacity="0.200000" points="91.76,-146.87 96.98,-143.25 90.64,-142.83 91.76,-146.87"/>
</g>
<!-- src/modules/__config.js -->
<g id="node9" class="node">
<title>src/modules/__config.js</title>
<g id="a_node9"><a xlink:href="src/modules/__config.js" xlink:title="__config.js">
<path fill="#ffffcc" stroke="black" d="M741,-100C741,-100 691,-100 691,-100 688,-100 685,-97 685,-94 685,-94 685,-88 685,-88 685,-85 688,-82 691,-82 691,-82 741,-82 741,-82 744,-82 747,-85 747,-88 747,-88 747,-94 747,-94 747,-97 744,-100 741,-100"/>
<text text-anchor="start" x="693" y="-88.8" font-family="Helvetica,sans-Serif" font-size="9.00">__config.js</text>
</a>
</g>
</g>
<!-- src/modules/common.js&#45;&gt;src/modules/__config.js -->
<g id="edge20" class="edge">
<title>src/modules/common.js&#45;&gt;src/modules/__config.js</title>
<path fill="none" stroke="#000000" stroke-width="2" stroke-opacity="0.200000" d="M246.69,-114.81C252.37,-99.87 265.66,-70.45 287,-55 331.53,-22.76 352.03,-25 407,-25 407,-25 407,-25 494.5,-25 534.46,-25 598.64,-37.95 672,-67 678.93,-69.74 686.13,-73.4 692.61,-77.04"/>
<polygon fill="#000000" fill-opacity="0.200000" stroke="#000000" stroke-width="2" stroke-opacity="0.200000" points="691.5,-78.82 697.74,-80.03 693.61,-75.19 691.5,-78.82"/>
</g>
<!-- src/modules/__constants.js -->
<g id="node10" class="node">
<title>src/modules/__constants.js</title>
<g id="a_node10"><a xlink:href="src/modules/__constants.js" xlink:title="__constants.js">
<path fill="#ffffcc" stroke="black" d="M526,-56C526,-56 461,-56 461,-56 458,-56 455,-53 455,-50 455,-50 455,-44 455,-44 455,-41 458,-38 461,-38 461,-38 526,-38 526,-38 529,-38 532,-41 532,-44 532,-44 532,-50 532,-50 532,-53 529,-56 526,-56"/>
<text text-anchor="start" x="463" y="-44.8" font-family="Helvetica,sans-Serif" font-size="9.00">__constants.js</text>
</a>
</g>
</g>
<!-- src/modules/common.js&#45;&gt;src/modules/__constants.js -->
<g id="edge21" class="edge">
<title>src/modules/common.js&#45;&gt;src/modules/__constants.js</title>
<path fill="none" stroke="#000000" stroke-width="2" stroke-opacity="0.200000" d="M253.23,-114.72C261.65,-107.05 274.42,-96.29 287,-89 322.92,-68.19 333.49,-64.06 374,-55 397.35,-49.78 423.87,-47.65 445.89,-46.88"/>
<polygon fill="#000000" fill-opacity="0.200000" stroke="#000000" stroke-width="2" stroke-opacity="0.200000" points="445.76,-48.98 451.7,-46.72 445.64,-44.78 445.76,-48.98"/>
</g>
<!-- src/modules/__functions.js -->
<g id="node11" class="node">
<title>src/modules/__functions.js</title>
<g id="a_node11"><a xlink:href="src/modules/__functions.js" xlink:title="__functions.js">
<path fill="#ffffcc" stroke="black" d="M355,-125C355,-125 293,-125 293,-125 290,-125 287,-122 287,-119 287,-119 287,-113 287,-113 287,-110 290,-107 293,-107 293,-107 355,-107 355,-107 358,-107 361,-110 361,-113 361,-113 361,-119 361,-119 361,-122 358,-125 355,-125"/>
<text text-anchor="start" x="295" y="-113.8" font-family="Helvetica,sans-Serif" font-size="9.00">__functions.js</text>
</a>
</g>
</g>
<!-- src/modules/common.js&#45;&gt;src/modules/__functions.js -->
<g id="edge22" class="edge">
<title>src/modules/common.js&#45;&gt;src/modules/__functions.js</title>
<path fill="none" stroke="#000000" stroke-width="2" stroke-opacity="0.200000" d="M274.46,-120.88C275.59,-120.77 276.73,-120.66 277.87,-120.54"/>
<polygon fill="#000000" fill-opacity="0.200000" stroke="#000000" stroke-width="2" stroke-opacity="0.200000" points="277.93,-122.65 283.69,-119.96 277.51,-118.47 277.93,-122.65"/>
</g>
<!-- src/modules/__globals.js -->
<g id="node12" class="node">
<title>src/modules/__globals.js</title>
<g id="a_node12"><a xlink:href="src/modules/__globals.js" xlink:title="__globals.js">
<path fill="#ffffcc" stroke="black" d="M436,-103C436,-103 380,-103 380,-103 377,-103 374,-100 374,-97 374,-97 374,-91 374,-91 374,-88 377,-85 380,-85 380,-85 436,-85 436,-85 439,-85 442,-88 442,-91 442,-91 442,-97 442,-97 442,-100 439,-103 436,-103"/>
<text text-anchor="start" x="382" y="-91.8" font-family="Helvetica,sans-Serif" font-size="9.00">__globals.js</text>
</a>
</g>
</g>
<!-- src/modules/common.js&#45;&gt;src/modules/__globals.js -->
<g id="edge23" class="edge">
<title>src/modules/common.js&#45;&gt;src/modules/__globals.js</title>
<path fill="none" stroke="#000000" stroke-width="2" stroke-opacity="0.200000" d="M257.35,-114.71C265.59,-109.69 276.47,-103.94 287,-101 312.11,-93.99 341.29,-92.15 364.58,-92.11"/>
<polygon fill="#000000" fill-opacity="0.200000" stroke="#000000" stroke-width="2" stroke-opacity="0.200000" points="364.48,-94.21 370.5,-92.16 364.52,-90.01 364.48,-94.21"/>
</g>
<!-- src/modules/__how_to_open_link.js -->
<g id="node13" class="node">
<title>src/modules/__how_to_open_link.js</title>
<g id="a_node13"><a xlink:href="src/modules/__how_to_open_link.js" xlink:title="__how_to_open_link.js">
<path fill="#ffffcc" stroke="black" d="M659,-133C659,-133 558,-133 558,-133 555,-133 552,-130 552,-127 552,-127 552,-121 552,-121 552,-118 555,-115 558,-115 558,-115 659,-115 659,-115 662,-115 665,-118 665,-121 665,-121 665,-127 665,-127 665,-130 662,-133 659,-133"/>
<text text-anchor="start" x="560" y="-121.8" font-family="Helvetica,sans-Serif" font-size="9.00">__how_to_open_link.js</text>
</a>
</g>
</g>
<!-- src/modules/common.js&#45;&gt;src/modules/__how_to_open_link.js -->
<g id="edge24" class="edge">
<title>src/modules/common.js&#45;&gt;src/modules/__how_to_open_link.js</title>
<path fill="none" stroke="#000000" stroke-width="2" stroke-opacity="0.200000" d="M260.8,-133.47C268.59,-137.33 278.04,-141.47 287,-144 392.15,-173.64 425.97,-190.35 532,-164 552.04,-159.02 572.61,-147.63 587.21,-138.27"/>
<polygon fill="#000000" fill-opacity="0.200000" stroke="#000000" stroke-width="2" stroke-opacity="0.200000" points="588.3,-140.07 592.14,-135 585.98,-136.56 588.3,-140.07"/>
</g>
<!-- src/modules/__logger.js -->
<g id="node14" class="node">
<title>src/modules/__logger.js</title>
<g id="a_node14"><a xlink:href="src/modules/__logger.js" xlink:title="__logger.js">
<path fill="#ffffcc" stroke="black" d="M519,-158C519,-158 468,-158 468,-158 465,-158 462,-155 462,-152 462,-152 462,-146 462,-146 462,-143 465,-140 468,-140 468,-140 519,-140 519,-140 522,-140 525,-143 525,-146 525,-146 525,-152 525,-152 525,-155 522,-158 519,-158"/>
<text text-anchor="start" x="470" y="-146.8" font-family="Helvetica,sans-Serif" font-size="9.00">__logger.js</text>
</a>
</g>
</g>
<!-- src/modules/common.js&#45;&gt;src/modules/__logger.js -->
<g id="edge25" class="edge">
<title>src/modules/common.js&#45;&gt;src/modules/__logger.js</title>
<path fill="none" stroke="#000000" stroke-width="2" stroke-opacity="0.200000" d="M274.22,-133.32C278.48,-134.36 282.83,-135.3 287,-136 344.03,-145.57 411.04,-148.23 452.65,-148.9"/>
<polygon fill="#000000" fill-opacity="0.200000" stroke="#000000" stroke-width="2" stroke-opacity="0.200000" points="452.58,-151 458.61,-148.98 452.64,-146.8 452.58,-151"/>
</g>
<!-- src/modules/__options.js -->
<g id="node15" class="node">
<title>src/modules/__options.js</title>
<g id="a_node15"><a xlink:href="src/modules/__options.js" xlink:title="__options.js">
<path fill="#ffffcc" stroke="black" d="M521.5,-114C521.5,-114 465.5,-114 465.5,-114 462.5,-114 459.5,-111 459.5,-108 459.5,-108 459.5,-102 459.5,-102 459.5,-99 462.5,-96 465.5,-96 465.5,-96 521.5,-96 521.5,-96 524.5,-96 527.5,-99 527.5,-102 527.5,-102 527.5,-108 527.5,-108 527.5,-111 524.5,-114 521.5,-114"/>
<text text-anchor="start" x="467.5" y="-102.8" font-family="Helvetica,sans-Serif" font-size="9.00">__options.js</text>
</a>
</g>
</g>
<!-- src/modules/common.js&#45;&gt;src/modules/__options.js -->
<g id="edge26" class="edge">
<title>src/modules/common.js&#45;&gt;src/modules/__options.js</title>
<path fill="none" stroke="#000000" stroke-width="2" stroke-opacity="0.200000" d="M274.32,-129.58C278.57,-130.17 282.88,-130.67 287,-131 319.78,-133.62 328.27,-134.2 361,-131 391.25,-128.04 424.86,-121.33 450.53,-115.47"/>
<polygon fill="#000000" fill-opacity="0.200000" stroke="#000000" stroke-width="2" stroke-opacity="0.200000" points="450.94,-117.53 456.31,-114.13 449.99,-113.44 450.94,-117.53"/>
</g>
<!-- src/modules/modifier_keys.js&#45;&gt;src/modules/common.js -->
<g id="edge27" class="edge">
<title>src/modules/modifier_keys.js&#45;&gt;src/modules/common.js</title>
<path fill="none" stroke="#000000" stroke-width="2" stroke-opacity="0.200000" d="M182.29,-153.59C187.63,-151.92 193,-150.05 198,-148 205.11,-145.09 212.55,-141.29 219.21,-137.58"/>
<polygon fill="#000000" fill-opacity="0.200000" stroke="#000000" stroke-width="2" stroke-opacity="0.200000" points="219.84,-139.65 224,-134.84 217.75,-136 219.84,-139.65"/>
</g>
<!-- src/modules/port_to_background.js&#45;&gt;src/modules/common.js -->
<g id="edge29" class="edge">
<title>src/modules/port_to_background.js&#45;&gt;src/modules/common.js</title>
<path fill="none" stroke="#000000" stroke-width="2" stroke-opacity="0.200000" d="M198.39,-128C199.57,-127.89 200.74,-127.78 201.91,-127.67"/>
<polygon fill="#000000" fill-opacity="0.200000" stroke="#000000" stroke-width="2" stroke-opacity="0.200000" points="201.86,-129.79 207.64,-127.14 201.48,-125.6 201.86,-129.79"/>
</g>
<!-- src/background.js -->
<g id="node5" class="node">
<title>src/background.js</title>
<g id="a_node5"><a xlink:href="src/background.js" xlink:title="background.js">
<path fill="#ffffcc" stroke="black" d="M175,-224C175,-224 112,-224 112,-224 109,-224 106,-221 106,-218 106,-218 106,-212 106,-212 106,-209 109,-206 112,-206 112,-206 175,-206 175,-206 178,-206 181,-209 181,-212 181,-212 181,-218 181,-218 181,-221 178,-224 175,-224"/>
<text text-anchor="start" x="114" y="-212.8" font-family="Helvetica,sans-Serif" font-size="9.00">background.js</text>
</a>
</g>
</g>
<!-- src/background.js&#45;&gt;src/modules/common.js -->
<g id="edge4" class="edge">
<title>src/background.js&#45;&gt;src/modules/common.js</title>
<path fill="none" stroke="#000000" stroke-width="2" stroke-opacity="0.200000" d="M181.43,-209.51C187.35,-207.5 193.13,-204.75 198,-201 217.58,-185.92 229.73,-159.37 236.06,-141.73"/>
<polygon fill="#000000" fill-opacity="0.200000" stroke="#000000" stroke-width="2" stroke-opacity="0.200000" points="237.97,-142.65 237.88,-136.29 233.98,-141.31 237.97,-142.65"/>
</g>
<!-- src/content.js -->
<g id="node6" class="node">
<title>src/content.js</title>
<g id="a_node6"><a xlink:href="src/content.js" xlink:title="content.js">
<path fill="#ffffcc" stroke="black" d="M66.5,-112C66.5,-112 22.5,-112 22.5,-112 19.5,-112 16.5,-109 16.5,-106 16.5,-106 16.5,-100 16.5,-100 16.5,-97 19.5,-94 22.5,-94 22.5,-94 66.5,-94 66.5,-94 69.5,-94 72.5,-97 72.5,-100 72.5,-100 72.5,-106 72.5,-106 72.5,-109 69.5,-112 66.5,-112"/>
<text text-anchor="start" x="24.5" y="-100.8" font-family="Helvetica,sans-Serif" font-size="9.00">content.js</text>
</a>
</g>
</g>
<!-- src/content.js&#45;&gt;src/modules/common.js -->
<g id="edge5" class="edge">
<title>src/content.js&#45;&gt;src/modules/common.js</title>
<path fill="none" stroke="#000000" stroke-width="2" stroke-opacity="0.200000" d="M53.72,-93.69C59.33,-87.19 66.84,-78.25 73,-70 76.83,-64.86 75.35,-61.02 81,-58 103.92,-45.73 175.11,-45.67 198,-58 216.96,-68.21 229.02,-90.71 235.52,-106.59"/>
<polygon fill="#000000" fill-opacity="0.200000" stroke="#000000" stroke-width="2" stroke-opacity="0.200000" points="233.4,-106.91 237.49,-111.78 237.32,-105.42 233.4,-106.91"/>
</g>
<!-- src/content.js&#45;&gt;src/modules/port_to_background.js -->
<g id="edge7" class="edge">
<title>src/content.js&#45;&gt;src/modules/port_to_background.js</title>
<path fill="none" stroke="#000000" stroke-width="2" stroke-opacity="0.200000" d="M66.31,-112.45C71.08,-114.43 76.17,-116.4 81,-118 84.31,-119.09 87.74,-120.15 91.22,-121.15"/>
<polygon fill="#000000" fill-opacity="0.200000" stroke="#000000" stroke-width="2" stroke-opacity="0.200000" points="90.64,-123.17 96.98,-122.75 91.76,-119.13 90.64,-123.17"/>
</g>
<!-- src/modules/popup_icon.js -->
<g id="node7" class="node">
<title>src/modules/popup_icon.js</title>
<g id="a_node7"><a xlink:href="src/modules/popup_icon.js" xlink:title="popup_icon.js">
<path fill="#ffffcc" stroke="black" d="M175,-112C175,-112 112,-112 112,-112 109,-112 106,-109 106,-106 106,-106 106,-100 106,-100 106,-97 109,-94 112,-94 112,-94 175,-94 175,-94 178,-94 181,-97 181,-100 181,-100 181,-106 181,-106 181,-109 178,-112 175,-112"/>
<text text-anchor="start" x="114" y="-100.8" font-family="Helvetica,sans-Serif" font-size="9.00">popup_icon.js</text>
</a>
</g>
</g>
<!-- src/content.js&#45;&gt;src/modules/popup_icon.js -->
<g id="edge6" class="edge">
<title>src/content.js&#45;&gt;src/modules/popup_icon.js</title>
<path fill="none" stroke="#000000" stroke-width="2" stroke-opacity="0.200000" d="M72.78,-103C80.27,-103 88.6,-103 96.82,-103"/>
<polygon fill="#000000" fill-opacity="0.200000" stroke="#000000" stroke-width="2" stroke-opacity="0.200000" points="96.63,-105.1 102.63,-103 96.63,-100.9 96.63,-105.1"/>
</g>
<!-- src/modules/popup_icon.js&#45;&gt;src/modules/common.js -->
<g id="edge28" class="edge">
<title>src/modules/popup_icon.js&#45;&gt;src/modules/common.js</title>
<path fill="none" stroke="#000000" stroke-width="2" stroke-opacity="0.200000" d="M181.45,-111C188.22,-112.47 195.32,-114 202.16,-115.48"/>
<polygon fill="#000000" fill-opacity="0.200000" stroke="#000000" stroke-width="2" stroke-opacity="0.200000" points="201.39,-117.46 207.69,-116.68 202.27,-113.36 201.39,-117.46"/>
</g>
<!-- src/modules/__communication_proxy.js -->
<g id="node8" class="node">
<title>src/modules/__communication_proxy.js</title>
<g id="a_node8"><a xlink:href="src/modules/__communication_proxy.js" xlink:title="__communication_proxy.js">
<path fill="#ffffcc" stroke="black" d="M666,-100C666,-100 551,-100 551,-100 548,-100 545,-97 545,-94 545,-94 545,-88 545,-88 545,-85 548,-82 551,-82 551,-82 666,-82 666,-82 669,-82 672,-85 672,-88 672,-88 672,-94 672,-94 672,-97 669,-100 666,-100"/>
<text text-anchor="start" x="553" y="-88.8" font-family="Helvetica,sans-Serif" font-size="9.00">__communication_proxy.js</text>
</a>
</g>
</g>
<!-- src/modules/__communication_proxy.js&#45;&gt;src/modules/__config.js -->
<g id="edge8" class="edge">
<title>src/modules/__communication_proxy.js&#45;&gt;src/modules/__config.js</title>
<path fill="none" stroke="#000000" stroke-width="2" stroke-opacity="0.200000" d="M672.39,-91C673.58,-91 674.77,-91 675.94,-91"/>
<polygon fill="#000000" fill-opacity="0.200000" stroke="#000000" stroke-width="2" stroke-opacity="0.200000" points="675.69,-93.1 681.69,-91 675.69,-88.9 675.69,-93.1"/>
</g>
<!-- src/modules/__functions.js&#45;&gt;src/modules/__constants.js -->
<g id="edge9" class="edge">
<title>src/modules/__functions.js&#45;&gt;src/modules/__constants.js</title>
<path fill="none" stroke="#000000" stroke-width="2" stroke-opacity="0.200000" d="M334.75,-106.82C344.14,-98.45 359.06,-86.31 374,-79 396.56,-67.96 423.46,-60.3 445.93,-55.25"/>
<polygon fill="#000000" fill-opacity="0.200000" stroke="#000000" stroke-width="2" stroke-opacity="0.200000" points="446.24,-57.33 451.66,-54.01 445.35,-53.23 446.24,-57.33"/>
</g>
<!-- src/modules/__functions.js&#45;&gt;src/modules/__globals.js -->
<g id="edge10" class="edge">
<title>src/modules/__functions.js&#45;&gt;src/modules/__globals.js</title>
<path fill="none" stroke="#000000" stroke-width="2" stroke-opacity="0.200000" d="M360.25,-106.54C361.91,-106.1 363.58,-105.65 365.26,-105.2"/>
<polygon fill="#000000" fill-opacity="0.200000" stroke="#000000" stroke-width="2" stroke-opacity="0.200000" points="365.42,-107.33 370.67,-103.75 364.33,-103.27 365.42,-107.33"/>
</g>
<!-- src/modules/__functions.js&#45;&gt;src/modules/__how_to_open_link.js -->
<g id="edge11" class="edge">
<title>src/modules/__functions.js&#45;&gt;src/modules/__how_to_open_link.js</title>
<path fill="none" stroke="#000000" stroke-width="2" stroke-opacity="0.200000" d="M361.42,-117.16C387.48,-117.99 423.4,-119.1 455,-120 483.78,-120.82 515.62,-121.67 542.73,-122.37"/>
<polygon fill="#000000" fill-opacity="0.200000" stroke="#000000" stroke-width="2" stroke-opacity="0.200000" points="542.65,-124.46 548.7,-122.52 542.76,-120.27 542.65,-124.46"/>
</g>
<!-- src/modules/__globals.js&#45;&gt;src/modules/__communication_proxy.js -->
<g id="edge12" class="edge">
<title>src/modules/__globals.js&#45;&gt;src/modules/__communication_proxy.js</title>
<path fill="none" stroke="#000000" stroke-width="2" stroke-opacity="0.200000" d="M442.14,-90.77C446.46,-90.45 450.84,-90.18 455,-90 481.38,-88.86 510.36,-88.75 535.9,-89.06"/>
<polygon fill="#000000" fill-opacity="0.200000" stroke="#000000" stroke-width="2" stroke-opacity="0.200000" points="535.72,-91.16 541.75,-89.14 535.78,-86.96 535.72,-91.16"/>
</g>
<!-- src/modules/__globals.js&#45;&gt;src/modules/__config.js -->
<g id="edge13" class="edge">
<title>src/modules/__globals.js&#45;&gt;src/modules/__config.js</title>
<path fill="none" stroke="#000000" stroke-width="2" stroke-opacity="0.200000" d="M442.46,-86.71C492.67,-76.89 590.33,-62.16 672,-76 675.97,-76.67 680.05,-77.67 684.06,-78.84"/>
<polygon fill="#000000" fill-opacity="0.200000" stroke="#000000" stroke-width="2" stroke-opacity="0.200000" points="683.38,-80.82 689.73,-80.67 684.67,-76.83 683.38,-80.82"/>
</g>
<!-- src/modules/__globals.js&#45;&gt;src/modules/__constants.js -->
<g id="edge14" class="edge">
<title>src/modules/__globals.js&#45;&gt;src/modules/__constants.js</title>
<path fill="none" stroke="#000000" stroke-width="2" stroke-opacity="0.200000" d="M423.57,-84.69C435.82,-76.9 451.82,-66.76 455,-65 457.82,-63.44 460.8,-61.88 463.79,-60.36"/>
<polygon fill="#000000" fill-opacity="0.200000" stroke="#000000" stroke-width="2" stroke-opacity="0.200000" points="464.49,-62.36 468.94,-57.82 462.63,-58.59 464.49,-62.36"/>
</g>
<!-- src/modules/__globals.js&#45;&gt;src/modules/__logger.js -->
<g id="edge15" class="edge">
<title>src/modules/__globals.js&#45;&gt;src/modules/__logger.js</title>
<path fill="none" stroke="#000000" stroke-width="2" stroke-opacity="0.200000" d="M423.16,-103.33C436.24,-111.94 455.85,-124.86 470.88,-134.76"/>
<polygon fill="#000000" fill-opacity="0.200000" stroke="#000000" stroke-width="2" stroke-opacity="0.200000" points="469.57,-136.41 475.74,-137.96 471.88,-132.9 469.57,-136.41"/>
</g>
<!-- src/modules/__globals.js&#45;&gt;src/modules/__options.js -->
<g id="edge16" class="edge">
<title>src/modules/__globals.js&#45;&gt;src/modules/__options.js</title>
<path fill="none" stroke="#000000" stroke-width="2" stroke-opacity="0.200000" d="M442.48,-98.41C445.03,-98.75 447.63,-99.09 450.23,-99.43"/>
<polygon fill="#000000" fill-opacity="0.200000" stroke="#000000" stroke-width="2" stroke-opacity="0.200000" points="449.79,-101.49 456.01,-100.19 450.34,-97.33 449.79,-101.49"/>
</g>
<!-- src/modules/__how_to_open_link.js&#45;&gt;src/modules/__config.js -->
<g id="edge17" class="edge">
<title>src/modules/__how_to_open_link.js&#45;&gt;src/modules/__config.js</title>
<path fill="none" stroke="#000000" stroke-width="2" stroke-opacity="0.200000" d="M643.66,-114.53C652.89,-111.87 662.85,-108.91 672,-106 674.71,-105.14 677.51,-104.22 680.32,-103.28"/>
<polygon fill="#000000" fill-opacity="0.200000" stroke="#000000" stroke-width="2" stroke-opacity="0.200000" points="680.83,-105.33 685.83,-101.41 679.48,-101.35 680.83,-105.33"/>
</g>
<!-- src/modules/__logger.js&#45;&gt;src/modules/__config.js -->
<g id="edge18" class="edge">
<title>src/modules/__logger.js&#45;&gt;src/modules/__config.js</title>
<path fill="none" stroke="#000000" stroke-width="2" stroke-opacity="0.200000" d="M525.45,-154.11C562.33,-158.71 624.85,-161.67 672,-139 685.96,-132.29 697.39,-118.8 704.95,-107.83"/>
<polygon fill="#000000" fill-opacity="0.200000" stroke="#000000" stroke-width="2" stroke-opacity="0.200000" points="706.61,-109.14 708.11,-102.96 703.08,-106.85 706.61,-109.14"/>
</g>
<!-- src/modules/__options.js&#45;&gt;src/modules/__how_to_open_link.js -->
<g id="edge19" class="edge">
<title>src/modules/__options.js&#45;&gt;src/modules/__how_to_open_link.js</title>
<path fill="none" stroke="#000000" stroke-width="2" stroke-opacity="0.200000" d="M527.79,-110.6C532.63,-111.41 537.74,-112.27 542.95,-113.15"/>
<polygon fill="#000000" fill-opacity="0.200000" stroke="#000000" stroke-width="2" stroke-opacity="0.200000" points="542.52,-115.2 548.78,-114.13 543.21,-111.06 542.52,-115.2"/>
</g>
<!-- src/modules/input_components.js -->
<g id="node16" class="node">
<title>src/modules/input_components.js</title>
<g id="a_node16"><a xlink:href="src/modules/input_components.js" xlink:title="input_components.js">
<path fill="#ffffcc" stroke="black" d="M189.5,-82C189.5,-82 97.5,-82 97.5,-82 94.5,-82 91.5,-79 91.5,-76 91.5,-76 91.5,-70 91.5,-70 91.5,-67 94.5,-64 97.5,-64 97.5,-64 189.5,-64 189.5,-64 192.5,-64 195.5,-67 195.5,-70 195.5,-70 195.5,-76 195.5,-76 195.5,-79 192.5,-82 189.5,-82"/>
<text text-anchor="start" x="99.5" y="-70.8" font-family="Helvetica,sans-Serif" font-size="9.00">input_components.js</text>
</a>
</g>
</g>
<!-- src/options.js -->
<g id="node17" class="node">
<title>src/options.js</title>
<g id="a_node17"><a xlink:href="src/options.js" xlink:title="options.js">
<path fill="#ffffcc" stroke="black" d="M67,-64C67,-64 22,-64 22,-64 19,-64 16,-61 16,-58 16,-58 16,-52 16,-52 16,-49 19,-46 22,-46 22,-46 67,-46 67,-46 70,-46 73,-49 73,-52 73,-52 73,-58 73,-58 73,-61 70,-64 67,-64"/>
<text text-anchor="start" x="24" y="-52.8" font-family="Helvetica,sans-Serif" font-size="9.00">options.js</text>
</a>
</g>
</g>
<!-- src/options.js&#45;&gt;src/modules/common.js -->
<g id="edge30" class="edge">
<title>src/options.js&#45;&gt;src/modules/common.js</title>
<path fill="none" stroke="#000000" stroke-width="2" stroke-opacity="0.200000" d="M69.63,-45.54C101.44,-34.72 158.03,-21.38 198,-45 220.14,-58.08 231.78,-86.9 237.27,-105.87"/>
<polygon fill="#000000" fill-opacity="0.200000" stroke="#000000" stroke-width="2" stroke-opacity="0.200000" points="235.22,-106.33 238.78,-111.6 239.28,-105.26 235.22,-106.33"/>
</g>
<!-- src/options.js&#45;&gt;src/modules/input_components.js -->
<g id="edge31" class="edge">
<title>src/options.js&#45;&gt;src/modules/input_components.js</title>
<path fill="none" stroke="#000000" stroke-width="2" stroke-opacity="0.200000" d="M73.3,-60.16C76.33,-60.72 79.5,-61.31 82.73,-61.91"/>
<polygon fill="#000000" fill-opacity="0.200000" stroke="#000000" stroke-width="2" stroke-opacity="0.200000" points="82.17,-63.94 88.45,-62.97 82.93,-59.81 82.17,-63.94"/>
</g>
</g>
</svg>
